<?xml version="1.0" encoding="UTF-8" standalone="no"?>
<!-- Created with Inkscape (http://www.inkscape.org/) -->

<svg
   xmlns:dc="http://purl.org/dc/elements/1.1/"
   xmlns:cc="http://creativecommons.org/ns#"
   xmlns:rdf="http://www.w3.org/1999/02/22-rdf-syntax-ns#"
   xmlns:svg="http://www.w3.org/2000/svg"
   xmlns="http://www.w3.org/2000/svg"
   xmlns:sodipodi="http://sodipodi.sourceforge.net/DTD/sodipodi-0.dtd"
   xmlns:inkscape="http://www.inkscape.org/namespaces/inkscape"
   width="160.44901"
   height="88.523743"
   viewBox="0 0 160.44901 88.523744"
   id="svg4253"
   version="1.1"
   inkscape:version="0.91 r13725"
   sodipodi:docname="Bank BJB.svg">
  <defs
     id="defs4255">
    <linearGradient
       id="linearGradient4297"
       spreadMethod="pad"
       gradientTransform="matrix(47.260391,1.650369,1.650369,-47.260391,449.78524,120.64061)"
       gradientUnits="userSpaceOnUse"
       y2="0"
       x2="1"
       y1="0"
       x1="0">
      <stop
         id="stop4299"
         offset="0"
         style="stop-opacity:1;stop-color:#3aa7df" />
      <stop
         id="stop4301"
         offset="0.12"
         style="stop-opacity:1;stop-color:#227aab" />
      <stop
         id="stop4303"
         offset="0.42"
         style="stop-opacity:1;stop-color:#1b517e" />
      <stop
         id="stop4305"
         offset="0.57"
         style="stop-opacity:1;stop-color:#8b8666" />
      <stop
         id="stop4307"
         offset="1"
         style="stop-opacity:1;stop-color:#efc900" />
    </linearGradient>
    <clipPath
       id="clipPath4315-4"
       clipPathUnits="userSpaceOnUse">
      <path
         inkscape:connector-curvature="0"
         id="path4317-6"
         d="m 0,0 595.276,0 0,841.89 L 0,841.89 0,0 Z" />
    </clipPath>
  </defs>
  <sodipodi:namedview
     id="base"
     pagecolor="#ffffff"
     bordercolor="#666666"
     borderopacity="1.0"
     inkscape:pageopacity="0.0"
     inkscape:pageshadow="2"
     inkscape:zoom="5.6256232"
     inkscape:cx="79.724505"
     inkscape:cy="43.761863"
     inkscape:document-units="px"
     inkscape:current-layer="layer1"
     showgrid="false"
     fit-margin-top="0"
     fit-margin-left="0"
     fit-margin-right="0"
     fit-margin-bottom="0"
     units="px"
     inkscape:window-width="1366"
     inkscape:window-height="706"
     inkscape:window-x="-8"
     inkscape:window-y="-8"
     inkscape:window-maximized="1" />
  <metadata
     id="metadata4258">
    <rdf:RDF>
      <cc:Work
         rdf:about="">
        <dc:format>image/svg+xml</dc:format>
        <dc:type
           rdf:resource="http://purl.org/dc/dcmitype/StillImage" />
        <dc:title></dc:title>
      </cc:Work>
    </rdf:RDF>
  </metadata>
  <g
     inkscape:label="Layer 1"
     inkscape:groupmode="layer"
     id="layer1"
     transform="translate(-225.98978,-964.74314)">
    <g
       id="g5365"
       transform="translate(0.49999756,-0.50000822)">
      <g
         transform="matrix(1.25,0,0,-1.25,-290.44734,1117.3019)"
         id="g4285">
        <g
           id="g4287">
          <g
             id="g4293">
            <g
               id="g4295">
              <path
                 inkscape:connector-curvature="0"
                 id="path4309"
                 style="fill:url(#linearGradient4297);stroke:none"
                 d="m 456.457,108.54 -0.838,-4.116 c 8.281,0.033 34.339,9.609 35.549,15.322 l 0,0 c 0,-10e-4 0.08,0.374 0.158,0.751 l 0,0 c 0.078,0.375 0.155,0.75 0.15,0.75 l 0,0 c -11.289,-7.596 -28.343,-12.69 -35.019,-12.707 m -1.58,-7.101 -0.781,-3.788 c 7.984,0.015 34.339,9.607 35.549,15.321 l 0,0 0.335,1.634 c -11.674,-8.084 -28.021,-12.97 -35.103,-13.167 m -1.701,-6.912 -0.84,-4.112 c 8.034,0.156 34.341,9.606 35.551,15.318 l 0,0 0.399,1.954 c -9.049,-6.289 -27.824,-13.199 -35.11,-13.16" />
            </g>
          </g>
        </g>
      </g>
      <g
         transform="matrix(1.25,0,0,-1.25,-290.44734,1117.3019)"
         id="g4311">
        <g
           clip-path="url(#clipPath4315-4)"
           id="g4313">
          <g
             transform="translate(413.2877,81.84)"
             id="g4319">
            <path
               inkscape:connector-curvature="0"
               id="path4321"
               style="fill:#1b517e;fill-opacity:1;fill-rule:nonzero;stroke:none"
               d="m 0,0 3.025,0 0,-10.568 0.07,0 c 1.078,1.876 3.024,3.094 5.737,3.094 4.173,0 7.127,-3.476 7.091,-8.589 0,-6.012 -3.788,-9.001 -7.544,-9.001 -2.434,0 -4.381,0.938 -5.632,3.162 l -0.104,0 -0.138,-2.78 -2.643,0 C -0.069,-23.534 0,-21.83 0,-20.336 L 0,0 Z m 3.025,-17.938 0,0 c 0,-0.382 0.07,-0.763 0.14,-1.112 0.591,-2.12 2.364,-3.582 4.589,-3.582 3.198,0 5.111,2.608 5.111,6.468 0,3.373 -1.74,6.257 -5.007,6.257 -2.087,0 -4.034,-1.425 -4.66,-3.755 -0.069,-0.348 -0.173,-0.764 -0.173,-1.252 l 0,-3.024 z" />
          </g>
          <g
             transform="translate(444.4739,61.1911)"
             id="g4323">
            <path
               inkscape:connector-curvature="0"
               id="path4325"
               style="fill:#1b517e;fill-opacity:1;fill-rule:nonzero;stroke:none"
               d="m 0,0 c 0,-1.461 0.069,-2.885 0.278,-4.033 l -2.782,0 -0.243,2.121 -0.105,0 c -0.938,-1.322 -2.747,-2.503 -5.144,-2.503 -3.408,0 -5.145,2.397 -5.145,4.83 0,4.069 3.614,6.295 10.116,6.257 l 0,0.35 c 0,1.389 -0.382,3.894 -3.824,3.894 -1.565,0 -3.198,-0.486 -4.381,-1.252 l -0.697,2.017 c 1.392,0.903 3.41,1.494 5.529,1.494 C -1.252,13.175 0,9.664 0,6.292 L 0,0 Z m -2.955,4.554 0,0 c -3.339,0.07 -7.127,-0.522 -7.127,-3.788 0,-1.984 1.32,-2.923 2.884,-2.923 2.191,0 3.581,1.392 4.068,2.816 0.105,0.315 0.175,0.662 0.175,0.973 l 0,2.922 z" />
          </g>
          <g
             transform="translate(449.1685,69.4313)"
             id="g4327">
            <path
               inkscape:connector-curvature="0"
               id="path4329"
               style="fill:#1b517e;fill-opacity:1;fill-rule:nonzero;stroke:none"
               d="m 0,0 c 0,1.738 -0.036,3.161 -0.139,4.553 l 2.709,0 0.176,-2.781 0.068,0 c 0.836,1.597 2.783,3.163 5.564,3.163 2.327,0 5.945,-1.391 5.945,-7.16 l 0,-10.049 -3.061,0 0,9.7 c 0,2.712 -1.006,4.973 -3.893,4.973 -2.016,0 -3.583,-1.427 -4.104,-3.131 -0.138,-0.38 -0.208,-0.903 -0.208,-1.426 l 0,-10.116 -3.057,0 L 0,0 Z" />
          </g>
          <g
             transform="translate(470.9996,66.2658)"
             id="g4331">
            <path
               inkscape:connector-curvature="0"
               id="path4333"
               style="fill:#1b517e;fill-opacity:1;fill-rule:nonzero;stroke:none"
               d="m 0,0 0.069,0 c 0.418,0.592 1.009,1.322 1.497,1.912 l 4.936,5.806 3.685,0 -6.501,-6.918 7.403,-9.908 -3.717,0 L 1.566,-1.043 0,-2.781 l 0,-6.327 -3.025,0 0,24.682 3.025,0 L 0,0 Z" />
          </g>
          <g
             transform="translate(507.2961,73.3885)"
             id="g4335">
            <path
               inkscape:connector-curvature="0"
               id="path4337"
               style="fill:#1b517e;fill-opacity:1;fill-rule:nonzero;stroke:none"
               d="m 0,0 c -0.114,0.136 -0.226,0.272 -0.347,0.397 -0.198,0.204 -0.418,0.397 -0.652,0.579 -1.266,1.034 -2.796,1.642 -4.445,1.642 -1.78,0 -3.419,-0.714 -4.738,-1.903 -0.039,-0.024 -0.072,-0.051 -0.111,-0.073 -0.047,-0.024 -0.114,-0.059 -0.192,-0.038 -0.216,0.057 -0.449,0.288 -0.45,0.619 l 0,6.881 c 0,0.431 -0.355,0.78 -0.789,0.78 l -3.348,0 c -0.437,0 -0.79,-0.349 -0.79,-0.78 l 0,-0.24 c 0,-0.008 -0.002,-0.015 -0.002,-0.025 l 0,-0.798 0.006,-22.18 c 0,-0.44 0.356,-0.798 0.795,-0.798 l 3.031,0 c 0.193,0 0.368,0.073 0.507,0.189 0.004,0.003 0.011,0.003 0.013,0.007 0.005,0.003 0.007,0.008 0.01,0.012 0.065,0.057 0.116,0.124 0.159,0.199 l 10e-4,0 c 0.052,0.098 0.087,0.201 0.099,0.315 0.06,0.49 0.394,0.761 0.601,0.69 0.071,-0.023 0.139,-0.057 0.209,-0.105 0.071,-0.044 0.14,-0.092 0.208,-0.137 0.205,-0.15 1.11,-0.769 1.809,-1.081 0.353,-0.156 1.477,-0.537 2.782,-0.537 1.306,0 2.233,0.289 2.452,0.347 0.22,0.059 0.436,0.133 0.644,0.228 1.022,0.44 1.843,1.043 2.468,1.808 0.617,0.751 1.129,1.64 1.544,2.661 0.617,1.345 0.968,2.886 0.968,4.528 C 2.442,-4.132 1.503,-1.717 0,0 m -6.913,-12.842 0,0 c -2.453,0 -4.443,2.642 -4.443,5.9 0,3.26 1.99,5.902 4.443,5.902 2.452,0 4.44,-2.642 4.44,-5.902 0,-3.258 -1.988,-5.9 -4.44,-5.9" />
          </g>
          <g
             transform="translate(518.4536,74.0326)"
             id="g4339">
            <path
               inkscape:connector-curvature="0"
               id="path4341"
               style="fill:#1b517e;fill-opacity:1;fill-rule:nonzero;stroke:none"
               d="m 0,0 c -0.003,0.045 -0.008,0.089 -0.012,0.132 l 0,0.588 c 0,0.442 -0.356,0.8 -0.798,0.8 l -3.374,0 c -0.442,0 -0.8,-0.358 -0.8,-0.8 l 0,-18.177 c -0.017,-0.463 -0.58,-1.098 -1.231,-1.255 -0.3,-0.093 -0.601,-0.136 -0.903,-0.122 -0.302,0.011 -0.509,-0.111 -0.626,-0.366 -0.046,-0.114 -0.08,-0.266 -0.105,-0.453 -0.021,-0.185 0.005,-2.133 0.018,-2.294 0.013,-0.163 0.041,-0.301 0.087,-0.416 0.139,-0.21 0.383,-0.349 0.73,-0.419 0.116,-0.047 2.356,-0.053 3.863,0.313 0.591,0.143 1.067,0.429 1.463,0.728 0.391,0.302 0.74,0.686 1.044,1.15 0.348,0.556 0.538,1.258 0.574,2.104 0.011,0.255 0.058,0.921 0.058,0.999 l 0,16.517 C -0.008,-0.882 -0.005,-0.792 0,-0.697 0.012,-0.466 0.012,-0.233 0,0" />
          </g>
          <g
             transform="translate(538.2669,73.3885)"
             id="g4343">
            <path
               inkscape:connector-curvature="0"
               id="path4345"
               style="fill:#1b517e;fill-opacity:1;fill-rule:nonzero;stroke:none"
               d="m 0,0 c -0.112,0.136 -0.225,0.272 -0.347,0.397 -0.198,0.204 -0.419,0.397 -0.652,0.579 -1.265,1.034 -2.795,1.642 -4.445,1.642 -1.779,0 -3.418,-0.714 -4.736,-1.903 -0.04,-0.024 -0.074,-0.051 -0.114,-0.073 -0.046,-0.024 -0.111,-0.059 -0.19,-0.038 -0.216,0.057 -0.449,0.288 -0.452,0.619 l 0,6.881 c 0,0.431 -0.352,0.78 -0.787,0.78 l -3.348,0 c -0.437,0 -0.79,-0.349 -0.79,-0.78 l 0,-0.24 c 0,-0.008 -0.003,-0.015 -0.003,-0.025 l 0,-0.798 0.005,-22.18 c 0,-0.44 0.357,-0.798 0.798,-0.798 l 3.027,0 c 0.196,0 0.372,0.073 0.51,0.189 0.004,0.003 0.008,0.003 0.013,0.007 0.004,0.003 0.007,0.008 0.01,0.012 0.062,0.057 0.117,0.124 0.159,0.199 l 0.002,0.003 c 0.052,0.095 0.086,0.198 0.098,0.312 0.06,0.49 0.392,0.761 0.6,0.69 0.071,-0.023 0.141,-0.057 0.21,-0.105 0.069,-0.044 0.138,-0.092 0.209,-0.137 0.204,-0.15 1.108,-0.769 1.808,-1.081 0.353,-0.156 1.475,-0.537 2.783,-0.537 1.303,0 2.23,0.289 2.451,0.347 0.22,0.059 0.435,0.133 0.644,0.228 1.019,0.44 1.844,1.043 2.469,1.808 0.617,0.751 1.129,1.64 1.543,2.661 0.616,1.345 0.967,2.886 0.967,4.528 C 2.442,-4.132 1.502,-1.717 0,0 m -6.911,-12.842 0,0 c -2.455,0 -4.443,2.642 -4.443,5.9 0,3.26 1.988,5.902 4.443,5.902 2.452,0 4.44,-2.642 4.44,-5.902 0,-3.258 -1.988,-5.9 -4.44,-5.9" />
          </g>
          <g
             transform="translate(515.897,82.0734)"
             id="g4347">
            <path
               inkscape:connector-curvature="0"
               id="path4349"
               style="fill:#1b517e;fill-opacity:1;fill-rule:nonzero;stroke:none"
               d="m 0,0 c -0.48,-0.007 -0.902,-0.116 -1.265,-0.327 -0.357,-0.218 -0.633,-0.509 -0.829,-0.866 -0.204,-0.363 -0.305,-0.763 -0.305,-1.207 0,-0.429 0.101,-0.814 0.29,-1.17 0.189,-0.357 0.458,-0.641 0.8,-0.858 0.349,-0.211 0.756,-0.32 1.222,-0.328 0.523,0.008 0.967,0.117 1.331,0.328 0.363,0.217 0.639,0.501 0.828,0.858 0.189,0.356 0.284,0.741 0.284,1.17 0,0.444 -0.102,0.844 -0.291,1.207 C 1.876,-0.836 1.6,-0.545 1.25,-0.327 0.901,-0.116 0.48,-0.007 0,0" />
          </g>
        </g>
      </g>
    </g>
  </g>
</svg>
